<?xml version="1.0" standalone="no"?>
<!DOCTYPE svg PUBLIC "-//W3C//DTD SVG 20010904//EN"
 "http://www.w3.org/TR/2001/REC-SVG-20010904/DTD/svg10.dtd">
<svg version="1.0" xmlns="http://www.w3.org/2000/svg"
 width="512.000000pt" height="512.000000pt" viewBox="0 0 512.000000 512.000000"
 preserveAspectRatio="xMidYMid meet">

<g transform="translate(0.000000,512.000000) scale(0.100000,-0.100000)"
fill="#000000" stroke="none">
<path d="M2315 5109 c-597 -61 -1141 -318 -1563 -739 -1002 -1000 -1002 -2620
0 -3620 407 -405 900 -647 1493 -732 119 -17 512 -16 635 1 573 79 1074 323
1473 717 418 413 663 908 749 1509 17 118 17 512 0 630 -85 593 -327 1088
-734 1495 -393 394 -891 643 -1453 726 -122 18 -477 26 -600 13z m460 -159
c551 -50 1089 -303 1481 -696 374 -376 605 -844 685 -1389 18 -118 18 -492 0
-610 -80 -544 -312 -1014 -685 -1389 -374 -375 -841 -606 -1391 -687 -118 -18
-492 -18 -610 0 -546 80 -1023 317 -1396 692 -188 190 -325 382 -449 631 -332
668 -332 1448 0 2116 242 487 604 849 1092 1091 393 196 837 280 1273 241z"/>
<path d="M2385 4714 c-561 -59 -1023 -281 -1392 -667 -297 -311 -482 -676
-564 -1112 -27 -140 -37 -464 -20 -616 116 -1007 903 -1794 1910 -1910 152
-17 476 -7 616 20 929 175 1616 884 1762 1816 24 153 24 479 -1 630 -154 954
-869 1670 -1816 1820 -101 16 -411 28 -495 19z m1259 -1137 c244 -73 427 -257
493 -498 16 -57 18 -115 18 -524 0 -454 0 -461 -23 -535 -70 -224 -225 -387
-441 -464 l-86 -31 -1022 -3 c-1131 -3 -1083 -5 -1226 62 -147 68 -252 171
-327 318 -69 137 -71 162 -68 688 l3 465 27 73 c89 244 295 419 546 462 26 4
497 7 1047 6 924 -1 1004 -3 1059 -19z"/>
<path d="M1545 3428 c-27 -5 -86 -27 -131 -48 -134 -65 -240 -194 -279 -341
-12 -43 -15 -143 -15 -489 1 -424 1 -437 23 -501 61 -179 197 -308 372 -354
86 -22 2001 -23 2084 0 190 50 346 213 386 402 11 52 15 159 15 464 0 362 -2
402 -20 473 -27 105 -63 169 -140 246 -77 77 -141 113 -246 140 -74 19 -111
20 -1038 19 -552 -1 -982 -5 -1011 -11z m667 -266 c113 -55 175 -151 185 -285
12 -159 -54 -298 -169 -358 -21 -11 -38 -23 -38 -28 0 -4 43 -111 97 -237 56
-133 96 -243 97 -263 0 -64 -87 -97 -131 -48 -11 12 -64 128 -118 257 -54 129
-102 245 -108 258 -9 18 -18 22 -59 22 l-48 0 0 -245 c0 -295 -6 -315 -88
-315 -14 0 -36 10 -49 22 l-23 21 0 589 c0 398 3 596 11 609 18 34 48 39 214
36 159 -2 161 -2 227 -35z m559 9 l29 -29 0 -426 c0 -408 1 -428 21 -481 40
-106 108 -161 190 -153 67 7 110 43 151 125 l33 68 5 442 c5 486 3 466 67 479
27 5 37 1 63 -24 l30 -30 0 -414 c0 -449 -5 -499 -55 -598 -40 -78 -115 -153
-186 -185 -152 -68 -333 5 -421 171 -55 103 -58 130 -58 597 0 284 4 435 11
448 23 45 80 49 120 10z"/>
<path d="M1920 2841 l0 -201 95 0 c165 0 220 49 220 195 0 93 -15 129 -71 172
-34 25 -46 28 -140 31 l-104 4 0 -201z"/>
</g>
</svg>
